<?xml version="1.0" encoding="utf-8"?>
<!-- Generator: Adobe Illustrator 23.0.3, SVG Export Plug-In . SVG Version: 6.00 Build 0)  -->
<svg version="1.1" id="Capa_1" xmlns="http://www.w3.org/2000/svg" xmlns:xlink="http://www.w3.org/1999/xlink" x="0px" y="0px"
	 viewBox="0 0 468.3 468.3" style="enable-background:new 0 0 468.3 468.3;" xml:space="preserve">
<style type="text/css">
	.st0{fill:#E56353;}
	.st1{fill:#27A2DB;}
	.st2{fill:#64798A;}
	.st3{fill:#3A556A;}
	.st4{fill:#CE412D;}
	.st5{fill:#2F4859;}
	.st6{fill:#EBF0F3;}
	.st7{fill:#D5D6DB;}
	.st8{fill:#D15241;}
	.st9{fill:#F7BE56;}
	.st10{fill:#2D93BA;}
	.st11{fill:#1C75A1;}
	.st12{fill:#E1E6E9;}
	.st13{fill:#FCD462;}
	.st14{fill:#DC8744;}
	.st15{fill:#FFFFFF;}
</style>
<path class="st0" d="M26.2,325.8V420H331c52.2,0,55.5-137.9,13.4-213.1h-29.2c12.2,84.9,23,184.5-22.1,180.3h-70.2l-0.3-61.4
	c0-25.9-21-46.8-46.8-46.8H73c-1,0-2,0-2.9,0.1C45.6,280.6,26.2,301,26.2,325.8z"/>
<path class="st1" d="M372.4,215.7c6.5-0.3,11.6-8.1,11.6-17.8s-5.2-17.5-11.6-17.8V215.7z"/>
<path class="st2" d="M318.4,149.2c-2.1-4.2-6.4-6.9-11.1-6.9h-0.4v-6.3h0.4c7.1,0,13.5,4,16.7,10.3l17.2,34.4l-5.6,2.8L318.4,149.2z
	"/>
<path class="st3" d="M302.3,114.6c4.8,0.3,8.1,11,7.3,23.9s-5.4,23.1-10.2,22.8L302.3,114.6z"/>
<g>
	<path class="st4" d="M368.1,352.8c8.2,0,16.1,1.5,23.4,4.3c-3.5-0.6-7.1-0.9-10.7-0.9c-35,0-63.5,28.7-63.5,63.8h-16
		C301.3,383,331.2,352.8,368.1,352.8z"/>
	<path class="st4" d="M70.1,279.1c-23.1,45.6-19.5,76.1-19.5,76.1c43.2-39.4,73.8-30.3,73.8-30.3c-74.9,23.7-79.6,78.9-79.3,95H26.2
		v-94.2C26.2,301,45.6,280.6,70.1,279.1z"/>
</g>
<path class="st5" d="M48,241.3h152.7c13.3,0,24,10.8,24,24c0,13.3-10.7,24-24,24H48c-13.3,0-24-10.7-24-24
	C24,252.1,34.8,241.3,48,241.3z"/>
<path class="st4" d="M115.8,352.8c8.2,0,16.1,1.5,23.4,4.3c-3.5-0.6-7.1-0.9-10.7-0.9c-35,0-63.5,28.7-63.5,63.8H49
	C49,383,78.9,352.8,115.8,352.8z"/>
<path class="st5" d="M128.5,371.7c26.7,0,48.3,21.6,48.3,48.3c0,26.7-21.6,48.3-48.3,48.3c-26.7,0-48.3-21.6-48.3-48.3
	C80.2,393.3,101.8,371.7,128.5,371.7z"/>
<circle class="st6" cx="128.5" cy="420" r="22.3"/>
<path class="st5" d="M288.9,188.7h41.6v11.5h-41.6c-3.2,0-5.7-2.6-5.7-5.7S285.7,188.7,288.9,188.7z"/>
<path class="st7" d="M309.6,182v31.9c0,3.4,2.8,6.2,6.2,6.2h41.9v-44.2h-41.9C312.4,175.8,309.6,178.6,309.6,182z"/>
<g>
	<path class="st5" d="M361.4,169.9h8.1c2.1,0,3.8,1.7,3.8,3.8v48.5c0,2.1-1.7,3.8-3.8,3.8h-8.1c-2.1,0-3.8-1.7-3.8-3.8v-48.5
		C357.6,171.6,359.3,169.9,361.4,169.9z"/>
	<ellipse class="st5" cx="380.8" cy="420" rx="48.3" ry="48.3"/>
</g>
<circle class="st6" cx="380.8" cy="420" r="22.3"/>
<g>
	<path class="st8" d="M380.8,356.1c35.1,0,63.5,28.8,63.5,63.9h-127C317.3,384.9,345.7,356.1,380.8,356.1z"/>
	<path class="st8" d="M128.5,356.1c35.1,0,63.5,28.8,63.5,63.9H65C65,384.9,93.4,356.1,128.5,356.1z"/>
</g>
<path class="st9" d="M192.6,89.4l24.3,15.5c0,0-1.6,17.3-13.7,29.5c-11.6-2.5-20.2-7.3-24.3-15.5C191,106.7,192.6,89.4,192.6,89.4z"
	/>
<g>
	<path class="st7" d="M273.4,341.4l5.1,35.5c-3.3,3.7-7.2,4-11.5,2.1l-13.8-33.4L273.4,341.4z"/>
	<path class="st7" d="M297,370.6l-12-41.1l-12.5,9.8c0,0,14.4,34.5,14.1,34.8C290.8,377.5,294.2,376.5,297,370.6z"/>
</g>
<path class="st4" d="M265.4,374.3l12.5-0.3c0,0,2.6,5.2,7.2,2.6h0.1l0.6-5.5c0,0,9.5,0.6,10.6-3.4c3.8,5.9,10.2,8.8,18.5,9.6
	c0.8,1.4-5.7,18.1-52.9,9.9C261.9,387.2,260.6,378.3,265.4,374.3z"/>
<path class="st10" d="M274.8,290.1c-9.1-56.8-29.7-45.3-29.7-45.3l27.3,97l14.3-11.4L274.8,290.1z"/>
<path class="st11" d="M160.4,199.5c0,0-2.6,26.3,35,20.9c15.1-2.2,28.2,0.8,38.3,5.2c14.4,6.1,24.5,19.3,27.1,34.6l13.9,82.4
	l-22.6,6.8l-3.8-19C235,250,214,253.9,214,253.9l-31.8,1.9c-81.1-1.9-68.5-41.2-68.5-41.2L160.4,199.5z"/>
<path class="st12" d="M270.2,181.1l0,7.5l-25.2,6.2l-69.9,19V152h21.7l-1.5,43.6l70.7-17.7C268.2,177.4,270.2,179,270.2,181.1z"/>
<path class="st13" d="M186.8,39.9c8-4.5-4.5-12.4,17.8-12.3c22.3,0.1,18.1-1.6,26.9-1.3c8.8,0.2,8.9-3,10.3,0
	c1.5,2.9,6.8,7.5,6.8,7.5c0,26.9,4.1,39.4,18.1,42.7c0,0,7.8,9.2-7.9,11c0,0-6.3,2.7-7.5,11.5c0,0-4,5-15.2-6.6c0,0-4.9,3.2,7.9,12
	c0,0-6.8,18-33.5,11.1c-26.7-6.9-26-45-26-45S178.8,44.3,186.8,39.9z"/>
<path class="st3" d="M119.8,166.3c34.4-55.5,62.1-50.8,62.1-50.8c-1.6,11.8,23.9,16.1,23.9,16.1c-1.1,31.3-22.6,61-56.5,89.6
	c-52.9,13.3-55.8-12-55.8-12C121.5,184.1,119.8,166.3,119.8,166.3z"/>
<path class="st9" d="M285.5,182.9c3.7,0.2,6.6,3.4,7.8,6.9c3.5,9.7,2.9,16.9-3,21c-1.7,1.2-4.1,0.6-5-1.3
	c-2.8-6.2-11.6-18.4-34.7-11.2l-7.9-4.7C256.2,182.5,273.8,182.1,285.5,182.9z"/>
<path class="st7" d="M249,64.8c0,0-4.7,18.3-18.9,5.4C235,62.7,243.7,60.8,249,64.8z"/>
<circle class="st14" cx="242" cy="67.8" r="2.8"/>
<path class="st13" d="M243.4,66.4c0.8,0,1.4,0.6,1.4,1.4s-0.6,1.4-1.4,1.4c-0.8,0-1.4-0.6-1.4-1.4S242.6,66.4,243.4,66.4z"/>
<path class="st5" d="M224.4,58.7c1.1-1.9,2.6-3.5,4.5-4.8c0.9-0.7,2-1.1,3.1-1.5c1.1-0.4,2.3-0.6,3.5-0.5c2.4,0,4.7,0.8,6.6,2.2
	c1.9,1.3,3.3,3,4.3,5c0.1,0.2,0.1,0.4,0,0.5c-0.2,0.2-0.5,0.3-0.7,0.1l0,0c-1.6-1.2-3.3-2.2-5-3c-1.7-0.8-3.4-1.3-5.1-1.3
	c-1.7-0.1-3.5,0.4-5.2,1.1c-1.7,0.7-3.4,1.8-5.1,3c-0.2,0.1-0.4,0.1-0.5,0C224.3,59.3,224.2,59,224.4,58.7z"/>
<path class="st7" d="M155.4,162.2l26.3,4.7l-2.2,33.1c-0.3,3.9,3.5,6.9,7.2,5.7l66.1-20l1.6,13.8c-29.2,14.9-61.2,32.3-78.6,36.9
	c-6.6,1.8-13.6-1.4-16.7-7.6C148.7,207.6,155.4,162.2,155.4,162.2z"/>
<path class="st5" d="M168.5,134.8c4.7-3.3,11.1-4,16.1-1.3c11.1,5.8,8.5,21.1-2.1,42c0,0-30.3-6.6-31.1-13.2
	C151.4,162.3,155.9,143.5,168.5,134.8z"/>
<g>
	<path class="st14" d="M262,42.2c2.8-0.3,5.7-0.9,8.1-2.5c2-1.2,3.4-3,4.3-5.2c0.4-1.1,0.7-1.7,1.5-0.4c0.5,0.9,0.5,2.1,0.3,3
		c-0.4,1.5-1.5,2.7-2.5,3.9c-1.3,1.5-2.7,3.1-4.5,4.1c-3.6,2.1-8.1,1.4-12.3,1.4c-0.8,0-1.7,0-2.4,0.5c-0.7,0.4-1.1,1.4-0.6,2.1
		c0.4,0.6,1.2,0.7,2,0.7c2.6,0.1,5.1,0.2,7.7,0.3c-3.3,1-6.8,1.1-10.2,0.3c-4.4-1.1-8.2-3.7-11.3-7c-3.1-3.3-5.5-7.1-7.6-11.1
		C241.5,39.5,251.9,43.2,262,42.2z"/>
	<path class="st14" d="M178.1,97.9c-8.2,6.2-13.4-2.4-13.6-2.8c8.8,7,12.5-9.4,12.5-9.4l5.2,0.9c4.6,5,4.8,12.6,0.3,17.7
		c-13.7,15.7-23.7,3-23.7,3C178.5,107.5,178.1,97.9,178.1,97.9z"/>
</g>
<path class="st2" d="M187.9,85.1c0,0,1.5,16.9,29.9,30.9c-1.7,1.7-4,2.6-6.2,2.6c-1.5,0-3-0.4-4.4-1.2
	c-22.7-13.2-23.9-27.7-23.9-27.7L187.9,85.1z"/>
<path class="st15" d="M381.5,192.2c0.6,1.8,0.9,3.8,0.9,5.7c0,1.9-0.3,3.9-0.9,5.7c-0.6,1.8-1.6,3.5-2.9,4.9c1.9-3.3,2.7-7,2.7-10.6
	c0-3.7-0.8-7.3-2.7-10.6C379.9,188.7,380.9,190.4,381.5,192.2z"/>
<g>
	<path class="st14" d="M221.9,40.8c1.2-0.8,2.8-0.9,4.2-0.4l-6.4,3.6C220,42.7,220.8,41.5,221.9,40.8z"/>
	<path class="st14" d="M219.6,44c0,0.1-0.1,0.3-0.1,0.4c-0.1,1.3,0.3,2.7-0.2,3.9c-0.4,1.2-1.7,2-2.2,3.2c-0.6,1.1-0.4,2.4-0.8,3.6
		c-0.4,1.9-1.8,3.5-3.1,4.9c-1.7,1.9-3.6,3.9-5.3,5.8c-0.9,1.1-1.9,2.1-3.2,2.6c-1.6,0.6-3.4,0.3-5.1,0c-2.4-0.4-4.8-0.9-7.2-1.4
		c-3.1-0.6-6.2-1.1-9-2.4L219.6,44z"/>
</g>
<path class="st0" d="M172.1,16.2c38.2-47,99.3,22.9,99.3,22.9c-8.2,8.2-18.1,1.2-45,4.6c0,0-32.6,13.4-34.3,34.6
	c-1.7,21.2-14.8,12.2-14.8,12.2C136.8,42.3,172.1,16.2,172.1,16.2z"/>
</svg>
